<svg width="45" height="45" viewBox="0 0 45 45" fill="none" xmlns="http://www.w3.org/2000/svg">
<path fill-rule="evenodd" clip-rule="evenodd" d="M13.2874 5.16152C13.8459 2.13872 16.2856 0 19.0806 0H25.9194C28.7144 0 31.154 2.13872 31.7127 5.16152C31.8416 5.85932 32.4149 6.37122 33.0112 6.37122H33.0455L33.0798 6.37285C36.0172 6.51448 38.2734 6.91193 40.1572 8.27442C41.3439 9.13285 42.3647 10.2373 43.1602 11.5261C44.15 13.1295 44.5864 14.9699 44.7957 17.1957C45 19.3703 45 22.0962 45 25.5487V25.7451C45 29.1976 45 31.9235 44.7957 34.098C44.5864 36.3238 44.15 38.1642 43.1602 39.7675C42.3647 41.0564 41.3439 42.1608 40.1572 43.0193C38.6847 44.0843 36.9967 44.5539 34.9493 44.7794C32.9448 45 30.4305 45 27.2374 45H17.7626C14.5695 45 12.0551 45 10.0506 44.7794C8.00328 44.5539 6.3153 44.0843 4.84294 43.0193C3.65614 42.1608 2.63522 41.0564 1.83975 39.7675C0.850019 38.1642 0.413498 36.3238 0.204321 34.098C-4.14183e-05 31.9235 -2.05066e-05 29.1976 4.23605e-07 25.7451V25.5487C-2.05066e-05 22.0962 -4.14183e-05 19.3703 0.204321 17.1957C0.413498 14.9699 0.850019 13.1295 1.83975 11.5261C2.63522 10.2373 3.65614 9.13285 4.84294 8.27442C6.72662 6.91193 8.98284 6.51448 11.9202 6.37285L11.9545 6.37122H11.9888C12.5851 6.37122 13.1585 5.85935 13.2874 5.16152ZM19.0806 3.46154C17.7388 3.46154 16.6166 4.48382 16.3638 5.85247C15.9542 8.06905 14.1719 9.81198 12.0272 9.83257C9.20453 9.97082 7.69261 10.3531 6.56506 11.1687C5.72042 11.7797 4.99714 12.5633 4.43524 13.4736C3.85725 14.41 3.50992 15.6075 3.32713 17.5524C3.1415 19.5279 3.13954 22.0745 3.13954 25.6468C3.13954 29.2193 3.1415 31.7658 3.32713 33.7412C3.50992 35.6862 3.85725 36.8836 4.43524 37.8201C4.99714 38.7305 5.72042 39.5142 6.56506 40.125C7.43896 40.7571 8.5572 41.136 10.3626 41.3349C12.1929 41.5364 14.5506 41.5385 17.8488 41.5385H27.1511C30.4495 41.5385 32.8071 41.5364 34.6374 41.3349C36.4429 41.136 37.561 40.7571 38.435 40.125C39.2796 39.5142 40.0029 38.7305 40.5647 37.8201C41.1428 36.8836 41.49 35.6862 41.6729 33.7412C41.8586 31.7658 41.8605 29.2193 41.8605 25.6468C41.8605 22.0745 41.8586 19.5279 41.6729 17.5524C41.49 15.6075 41.1428 14.41 40.5647 13.4736C40.0029 12.5633 39.2796 11.7797 38.435 11.1687C37.3073 10.3531 35.7955 9.97082 32.9729 9.83257C30.8281 9.81198 29.0457 8.06905 28.6363 5.85247C28.3833 4.48382 27.2612 3.46154 25.9194 3.46154H19.0806ZM22.5 19.6154C19.8992 19.6154 17.7907 21.9402 17.7907 24.8077C17.7907 27.6752 19.8992 30 22.5 30C25.1008 30 27.2093 27.6752 27.2093 24.8077C27.2093 21.9402 25.1008 19.6154 22.5 19.6154ZM14.6512 24.8077C14.6512 20.0282 18.1652 16.1538 22.5 16.1538C26.8349 16.1538 30.3488 20.0282 30.3488 24.8077C30.3488 29.5872 26.8349 33.4615 22.5 33.4615C18.1652 33.4615 14.6512 29.5872 14.6512 24.8077ZM33.4884 17.8846C33.4884 16.9287 34.1912 16.1538 35.0581 16.1538H37.1512C38.0181 16.1538 38.7209 16.9287 38.7209 17.8846C38.7209 18.8405 38.0181 19.6154 37.1512 19.6154H35.0581C34.1912 19.6154 33.4884 18.8405 33.4884 17.8846Z" fill="#A0D6BB"/>
</svg>
