<svg width="180" height="294" viewBox="0 0 180 294" fill="none" xmlns="http://www.w3.org/2000/svg">
<rect x="0.962891" y="23.1907" width="63.3554" height="14.255" rx="7.12748" transform="rotate(-13.3971 0.962891 23.1907)" fill="#419F70"/>
<rect x="10.3262" y="58.9985" width="63.3554" height="14.255" rx="7.12748" transform="rotate(-13.3971 10.3262 58.9985)" fill="#419F70"/>
<rect x="13.5862" y="73.1118" width="49.9959" height="14.255" rx="7.12748" transform="rotate(-105.768 13.5862 73.1118)" fill="#419F70"/>
<rect x="117.401" width="63.3554" height="14.255" rx="7.12748" transform="rotate(8.86314 117.401 0)" fill="#419F70"/>
<rect x="112.502" y="36.686" width="63.3554" height="14.255" rx="7.12748" transform="rotate(8.86314 112.502 36.686)" fill="#419F70"/>
<rect x="110.173" y="50.9822" width="49.9959" height="14.255" rx="7.12748" transform="rotate(-83.5079 110.173 50.9822)" fill="#419F70"/>
<rect x="85.7673" y="80.2334" width="78.2491" height="14.255" rx="7.12748" transform="rotate(-90.244 85.7673 80.2334)" fill="#419F70"/>
<rect x="170.557" y="104.775" width="73.4271" height="14.255" rx="7.12748" transform="rotate(-171.465 170.557 104.775)" fill="#419F70"/>
<rect x="131.382" y="78.3542" width="15.2699" height="14.255" rx="7.12748" transform="rotate(-84.7052 131.382 78.3542)" fill="#419F70"/>
<path d="M149.417 168.152C147.39 178.612 139.595 187.727 127.119 193.564C114.652 199.396 98.1168 201.574 80.5674 198.173C63.018 194.771 48.4944 186.572 39.1096 176.505C29.7175 166.429 25.8933 155.062 27.9208 144.601C29.9484 134.141 37.7428 125.026 50.2192 119.189C62.686 113.357 79.2211 111.179 96.7705 114.58C114.32 117.982 128.844 126.181 138.228 136.248C147.62 146.324 151.445 157.691 149.417 168.152Z" stroke="#419F70" stroke-width="18"/>
<path d="M138.975 294H72.9637C70.5447 294 68.5837 292.06 68.5837 289.667V270.815C68.5837 268.422 70.5447 266.482 72.9637 266.482H108C110.419 266.482 112.379 268.422 112.379 270.815C112.379 273.207 110.419 275.147 108 275.147H77.3437V285.335H134.595V275.147H127.39C124.971 275.147 123.01 273.207 123.01 270.815C123.01 268.422 124.971 266.482 127.39 266.482H138.975C141.394 266.482 143.354 268.422 143.354 270.815V289.667C143.354 292.06 141.394 294 138.975 294Z" fill="#419F70"/>
<path d="M110.874 211.21V207.023C110.874 202.838 107.422 199.273 102.986 199.124C98.3282 198.969 94.5008 202.482 94.5008 206.838V211.356L94.4127 170.909C94.4127 166.646 90.7476 163.19 86.2261 163.19H85.9112C81.3897 163.19 77.7247 166.646 77.7247 170.909V199.956V206.635V226.82L69.759 207.635C68.3579 203.496 63.6604 201.214 59.271 202.535C54.8815 203.859 52.4606 208.286 53.8624 212.426L71.3525 248.054C73.5128 252.454 78.1865 255.271 83.3288 255.274L130.405 255.294C137.699 255.297 143.614 249.723 143.615 242.845L143.62 212.254C143.62 207.991 139.955 204.535 135.433 204.535C130.912 204.535 127.247 207.991 127.247 212.254V210.419C127.247 206.156 123.581 202.7 119.06 202.7C114.539 202.7 110.873 206.156 110.873 210.419" fill="white"/>
<path d="M130.412 259.626C130.409 259.626 130.407 259.626 130.403 259.626L83.3276 259.606C76.5394 259.603 70.2926 255.811 67.4133 249.946L49.9229 214.319C49.8404 214.151 49.769 213.978 49.7096 213.802C48.6721 210.735 48.9277 207.459 50.4302 204.577C51.9868 201.59 54.6734 199.393 57.995 198.392C64.1277 196.546 70.6954 199.424 73.3457 204.877V170.909C73.3457 164.264 78.983 158.858 85.9118 158.858H86.2268C93.1556 158.858 98.793 164.264 98.793 170.909L98.8463 195.368C100.219 194.944 101.67 194.744 103.135 194.794C107.204 194.93 110.745 196.91 112.931 199.901C114.746 198.925 116.837 198.368 119.061 198.368C122.735 198.368 126.046 199.889 128.346 202.307C130.365 200.98 132.807 200.203 135.434 200.203C142.363 200.203 148 205.61 148 212.254L147.995 242.845C147.995 247.368 146.138 251.61 142.767 254.786C139.455 257.908 135.067 259.626 130.412 259.626ZM57.9511 210.836L75.293 246.161C76.7178 249.063 79.873 250.94 83.3314 250.941L130.408 250.961C130.409 250.961 130.411 250.961 130.412 250.961C132.807 250.961 135.049 250.092 136.725 248.513C138.344 246.988 139.236 244.974 139.236 242.845L139.241 212.254C139.241 210.387 137.533 208.868 135.434 208.868C133.335 208.868 131.627 210.388 131.627 212.255C131.627 214.647 129.667 216.587 127.247 216.587C124.828 216.587 122.868 214.647 122.868 212.255V210.42C122.868 208.553 121.16 207.034 119.061 207.034C116.962 207.034 115.254 208.553 115.254 210.42V211.21C115.254 213.603 113.294 215.543 110.874 215.543C108.455 215.543 106.495 213.603 106.495 211.21V207.024C106.495 205.123 104.854 203.522 102.838 203.455C101.717 203.421 100.67 203.801 99.9018 204.535C99.2435 205.164 98.8805 205.982 98.8805 206.839V211.356C98.8805 213.747 96.9224 215.686 94.5056 215.689C94.5043 215.689 94.5021 215.689 94.5008 215.689C92.0859 215.689 90.1262 213.755 90.1209 211.365V211.355L90.0324 170.919C90.0324 169.042 88.3249 167.523 86.2259 167.523H85.9109C83.8119 167.523 82.1043 169.042 82.1043 170.91V226.821C82.1043 228.89 80.6249 230.67 78.5723 231.071C76.5213 231.474 74.4675 230.381 73.673 228.467L65.7073 209.281C65.6707 209.193 65.6362 209.102 65.6056 209.011C64.9636 207.115 62.647 206.048 60.5461 206.68C59.5076 206.994 58.679 207.657 58.2152 208.546C57.9457 209.065 57.693 209.869 57.9511 210.836Z" fill="#419F70"/>
<path d="M85.7601 154.1C83.3411 154.1 81.3801 152.16 81.3801 149.768V138.332C81.3801 135.94 83.3411 134 85.7601 134C88.1791 134 90.14 135.94 90.14 138.332V149.768C90.1397 152.16 88.1791 154.1 85.7601 154.1Z" fill="#419F70"/>
<path d="M70.3308 160.422C69.2096 160.422 68.0894 159.999 67.2339 159.153L59.0597 151.067C57.3493 149.375 57.3493 146.632 59.0597 144.94C60.7701 143.249 63.5432 143.249 65.2536 144.94L73.4281 153.026C75.1386 154.718 75.1386 157.461 73.4281 159.153C72.5729 159.999 71.4521 160.422 70.3308 160.422Z" fill="#419F70"/>
<path d="M119.14 175.684H107.579C105.16 175.684 103.199 173.744 103.199 171.351C103.199 168.959 105.16 167.019 107.579 167.019H119.14C121.559 167.019 123.52 168.959 123.52 171.351C123.52 173.744 121.559 175.684 119.14 175.684Z" fill="#419F70"/>
<path d="M63.9402 175.684H52.38C49.9609 175.684 48 173.744 48 171.351C48 168.959 49.9609 167.019 52.38 167.019H63.9405C66.3595 167.019 68.3205 168.959 68.3205 171.351C68.3205 173.744 66.3592 175.684 63.9402 175.684Z" fill="#419F70"/>
<path d="M101.189 160.421C100.068 160.421 98.9465 159.998 98.0916 159.152C96.3812 157.46 96.3812 154.717 98.0916 153.025L106.266 144.939C107.977 143.248 110.75 143.248 112.46 144.939C114.171 146.631 114.171 149.374 112.46 151.066L104.286 159.152C103.43 159.998 102.31 160.421 101.189 160.421Z" fill="#419F70"/>
</svg>
